#!OML:ASF E:\Style4\Style4.ASF
:FULLY-SPECIFIED
:DEGREES
969
root 0.345268 17.6294 -1.80219 6.70155 8.25742 -1.10211
lowerback 14.8159 4.58858 -4.89174
upperback 9.6615 5.49998 -4.00775
thorax 1.95557 2.68164 -2.17838
lowerneck 1.23592 -2.12811 -4.25351
upperneck -11.6428 -1.20297 17.6869
head -3.44175 -1.17944 6.22338
rclavicle 1.51076e-014 3.49861e-014
rhumerus 27.8299 9.01962 -5.14374
rradius 57.9185
rwrist -69.407
rhand -3.83246 15.454
rfingers 7.12502
rthumb 21.9148 -13.3248
lclavicle 1.51076e-014 3.49861e-014
lhumerus 40.826 -8.54992 34.1604
lradius 67.3074
lwrist 66.9297
lhand 10.301 26.7966
lfingers 7.12502
lthumb 35.4118 53.2555
rfemur -25.717 -8.56418 19.2449
rtibia 37.3251
rfoot -18.0776 -12.131
rtoes -12.2495
lfemur -29.8297 0.945854 -18.7581
ltibia 38.3693
lfoot -15.4163 1.67902
ltoes -6.7136
970
root 0.33816 17.6247 -1.80452 6.71204 8.50951 -1.04616
lowerback 14.6705 4.63108 -4.97195
upperback 9.798 5.57181 -4.07408
thorax 2.1813 2.71431 -2.19579
lowerneck 1.15066 -2.16017 -4.2575
upperneck -11.7001 -1.23353 17.7314
head -3.43937 -1.19427 6.2393
rclavicle 3.18055e-015 1.35174e-014
rhumerus 28.5692 9.02783 -4.82046
rradius 58.3838
rwrist -69.6014
rhand -3.68407 15.5265
rfingers 7.12502
rthumb 22.0573 -13.2356
lclavicle 3.18055e-015 1.35174e-014
lhumerus 41.2498 -8.91777 34.2099
lradius 67.7071
lwrist 67.1085
lhand 10.2331 26.7312
lfingers 7.12502
lthumb 35.3474 53.2055
rfemur -25.7828 -8.64615 19.2081
rtibia 37.4829
rfoot -18.1336 -12.2396
rtoes -12.1828
lfemur -29.9323 0.805086 -18.7879
ltibia 38.4519
lfoot -15.3797 1.56968
ltoes -6.50961
971
root 0.328361 17.6195 -1.81011 6.74316 8.70889 -1.19354
lowerback 14.649 4.67032 -4.88957
upperback 9.81454 5.63723 -4.10317
thorax 2.22136 2.75213 -2.27749
lowerneck 1.08856 -2.17133 -4.29655
upperneck -11.6963 -1.24401 17.7909
head -3.42462 -1.19661 6.26449
rclavicle -4.77083e-015 5.24792e-014
rhumerus 29.2937 9.13805 -4.54359
rradius 58.943
rwrist -69.8368
rhand -3.91602 15.4022
rfingers 7.12502
rthumb 21.8346 -13.386
lclavicle -4.77083e-015 5.24792e-014
lhumerus 41.5299 -9.32417 34.2441
lradius 68.1369
lwrist 67.3017
lhand 10.2095 26.7927
lfingers 7.12502
lthumb 35.325 53.2723
rfemur -25.9459 -8.58846 19.4064
rtibia 37.652
rfoot -18.2002 -12.3684
rtoes -11.8698
lfemur -30.1399 0.77975 -18.5909
ltibia 38.578
lfoot -15.3694 1.39019
ltoes -6.12444
972
root 0.320371 17.6144 -1.81178 6.74417 8.89134 -1.33703
lowerback 14.7423 4.72961 -4.80872
upperback 9.7519 5.71243 -4.12471
thorax 2.11478 2.79619 -2.36482
lowerneck 1.0887 -2.19722 -4.32017
upperneck -11.665 -1.27817 17.8491
head -3.41018 -1.21291 6.28724
rclavicle 4.37326e-014 -3.97569e-015
rhumerus 29.9314 9.31392 -4.3635
rradius 59.4926
rwrist -70.1252
rhand -4.00192 15.3853
rfingers 7.12502
rthumb 21.7521 -13.4124
lclavicle 4.37326e-014 -3.97569e-015
lhumerus 41.6602 -9.83939 34.3033
lradius 68.6344
lwrist 67.5056
lhand 10.177 26.8799
lfingers 7.12502
lthumb 35.2942 53.3668
rfemur -26.0637 -8.56424 19.5915
rtibia 37.8385
rfoot -18.3167 -12.488
rtoes -11.6179
lfemur -30.3033 0.760993 -18.4044
ltibia 38.7078
lfoot -15.3151 1.17764
ltoes -5.66756
973
root 0.315041 17.608 -1.8122 6.74308 9.14202 -1.36591
lowerback 14.8053 4.75753 -4.77989
upperback 9.73069 5.7475 -4.18498
thorax 2.06889 2.81867 -2.45477
lowerneck 1.00052 -2.20597 -4.26696
upperneck -11.5636 -1.29913 17.8604
head -3.3631 -1.21667 6.2778
rclavicle -5.80451e-014 1.98785e-014
rhumerus 30.5637 9.46122 -4.21571
rradius 60.0126
rwrist -70.4317
rhand -3.88314 15.7071
rfingers 7.12502
rthumb 21.8662 -13.0775
lclavicle -5.80451e-014 1.98785e-014
lhumerus 41.8235 -10.2949 34.3284
lradius 69.0812
lwrist 67.6621
lhand 10.2192 26.9183
lfingers 7.12502
lthumb 35.3342 53.3957
rfemur -26.1472 -8.71361 19.6505
rtibia 38.0381
rfoot -18.4262 -12.5605
rtoes -11.5608
lfemur -30.4354 0.691329 -18.3608
ltibia 38.8297
lfoot -15.262 1.00043
ltoes -5.5682
974
root 0.307549 17.6011 -1.81235 6.73485 9.3944 -1.25755
lowerback 14.8717 4.79809 -4.95015
upperback 9.7446 5.77818 -4.25619
thorax 2.04356 2.8298 -2.44554
lowerneck 0.905132 -2.22164 -4.175
upperneck -11.4976 -1.32857 17.8189
head -3.32563 -1.22539 6.24557
rclavicle -7.15625e-014 1.59028e-014
rhumerus 31.2367 9.58916 -3.98063
rradius 60.4883
rwrist -70.7227
rhand -3.6099 16.0141
rfingers 7.12502
rthumb 22.1285 -12.7395
lclavicle -7.15625e-014 1.59028e-014
lhumerus 42.0374 -10.7 34.3291
lradius 69.4615
lwrist 67.8487
lhand 10.2217 26.8771
lfingers 7.12502
lthumb 35.3366 53.3539
rfemur -26.2176 -8.89776 19.5716
rtibia 38.2705
rfoot -18.5157 -12.707
rtoes -11.7685
lfemur -30.4993 0.562591 -18.4482
ltibia 38.9127
lfoot -15.2368 0.845741
ltoes -5.29491
975
root 0.299126 17.5958 -1.81251 6.68712 9.63413 -1.17365
lowerback 14.9437 4.87731 -5.09927
upperback 9.79214 5.86336 -4.27952
thorax 2.04861 2.86719 -2.40416
lowerneck 0.894084 -2.28006 -4.2097
upperneck -11.5696 -1.39531 17.8641
head -3.33575 -1.26096 6.26922
rclavicle 4.37326e-014 -3.4191e-014
rhumerus 31.8226 9.60436 -3.79728
rradius 60.9034
rwrist -70.7582
rhand -3.44778 16.1116
rfingers 7.12502
rthumb 22.2842 -12.6235
lclavicle 4.37326e-014 -3.4191e-014
lhumerus 42.2875 -11.1427 34.3558
lradius 69.8829
lwrist 68.014
lhand 10.1751 26.8927
lfingers 7.12502
lthumb 35.2924 53.38
rfemur -26.2564 -9.03271 19.5104
rtibia 38.513
rfoot -18.634 -12.7742
rtoes -11.4847
lfemur -30.5266 0.467131 -18.5128
ltibia 38.9871
lfoot -15.2211 0.688101
ltoes -5.41522
976
root 0.292159 17.589 -1.81111 6.6708 9.9036 -1.08584
lowerback 14.8503 4.9318 -5.15875
upperback 9.91393 5.94893 -4.33749
thorax 2.23273 2.90831 -2.43032
lowerneck 0.855217 -2.35008 -4.2283
upperneck -11.7033 -1.47207 17.8764
head -3.35868 -1.30228 6.28084
rclavicle 5.56597e-015 4.37326e-014
rhumerus 32.3717 9.49168 -3.75824
rradius 61.3172
rwrist -70.6476
rhand -3.53362 16.0967
rfingers 7.12502
rthumb 22.2018 -12.6483
lclavicle 5.56597e-015 4.37326e-014
lhumerus 42.6122 -11.5118 34.345
lradius 70.3075
lwrist 68.1432
lhand 10.0915 26.8559
lfingers 7.12502
lthumb 35.2131 53.3619
rfemur -26.3253 -9.20274 19.4334
rtibia 38.7714
rfoot -18.8507 -12.7617
rtoes -11.2397
lfemur -30.5626 0.36781 -18.5889
ltibia 39.0481
lfoot -15.2219 0.565062
ltoes -5.77532
977
root 0.286246 17.5828 -1.81104 6.69033 10.1614 -1.06598
lowerback 14.777 4.97195 -5.06675
upperback 9.97334 6.02735 -4.44735
thorax 2.35858 2.95604 -2.59708
lowerneck 0.824888 -2.42763 -4.23746
upperneck -11.7562 -1.55913 17.9922
head -3.35659 -1.35008 6.32243
rclavicle -1.17681e-013 4.6118e-014
rhumerus 32.8837 9.43251 -3.78758
rradius 61.7478
rwrist -70.6731
rhand -3.63556 16.0852
rfingers 7.12502
rthumb 22.1039 -12.6714
lclavicle -1.17681e-013 4.6118e-014
lhumerus 42.9544 -11.9195 34.264
lradius 70.7077
lwrist 68.2352
lhand 10.0769 26.7566
lfingers 7.12502
lthumb 35.1993 53.2659
rfemur -26.4403 -9.36804 19.4461
rtibia 39.0121
rfoot -18.9666 -12.8499
rtoes -11.3028
lfemur -30.6752 0.29395 -18.5881
ltibia 39.13
lfoot -15.1719 0.383499
ltoes -5.92183
978
root 0.279668 17.5779 -1.81022 6.70143 10.3934 -1.01341
lowerback 14.812 5.03398 -5.00177
upperback 9.9754 6.11646 -4.56285
thorax 2.36457 3.00957 -2.76868
lowerneck 0.827355 -2.49975 -4.29426
upperneck -11.785 -1.63915 18.1563
head -3.35218 -1.39468 6.38773
rclavicle 5.96354e-014 -5.24792e-014
rhumerus 33.3403 9.43843 -3.79292
rradius 62.1624
rwrist -70.8857
rhand -3.577 16.2043
rfingers 7.12502
rthumb 22.1601 -12.5456
lclavicle 5.96354e-014 -5.24792e-014
lhumerus 43.233 -12.3508 34.2316
lradius 71.0753
lwrist 68.2825
lhand 10.2971 26.8821
lfingers 7.12502
lthumb 35.4081 53.3418
rfemur -26.5411 -9.50517 19.4194
rtibia 39.2498
rfoot -19.0324 -12.9876
rtoes -11.5318
lfemur -30.7817 0.202441 -18.6159
ltibia 39.2218
lfoot -15.0557 0.100548
ltoes -4.95624
979
root 0.272927 17.5709 -1.80883 6.67615 10.6253 -0.989396
lowerback 14.8846 5.0937 -4.99673
upperback 9.98775 6.19207 -4.61895
thorax 2.34932 3.05122 -2.84646
lowerneck 0.776795 -2.56361 -4.25967
upperneck -11.7779 -1.72966 18.1236
head -3.33161 -1.4364 6.37146
rclavicle -3.02153e-014 1.98785e-014
rhumerus 33.7992 9.43424 -3.76703
rradius 62.6396
rwrist -71.0636
rhand -3.53414 16.166
rfingers 7.12502
rthumb 22.2013 -12.579
lclavicle -3.02153e-014 1.98785e-014
lhumerus 43.4196 -12.7714 34.1424
lradius 71.4821
lwrist 68.4089
lhand 10.1926 26.9076
lfingers 7.12502
lthumb 35.309 53.3909
rfemur -26.6076 -9.64982 19.4209
rtibia 39.4872
rfoot -19.1172 -13.0874
rtoes -11.5659
lfemur -30.8623 0.0815743 -18.614
ltibia 39.3393
lfoot -15.0098 -0.109781
ltoes -4.08441
980
root 0.266852 17.5635 -1.80807 6.60204 10.9093 -1.02309
lowerback 14.9944 5.11876 -4.94728
upperback 10.0244 6.22605 -4.6394
thorax 2.33997 3.07298 -2.90794
lowerneck 0.706794 -2.60598 -4.22193
upperneck -11.7213 -1.79857 18.0795
head -3.29603 -1.46405 6.34885
rclavicle 5.96354e-014 -4.29375e-014
rhumerus 34.3941 9.4214 -3.75176
rradius 63.0445
rwrist -71.2545
rhand -3.54616 16.2999
rfingers 7.12502
rthumb 22.1897 -12.4465
lclavicle 5.96354e-014 -4.29375e-014
lhumerus 43.6018 -13.1157 34.0325
lradius 71.8573
lwrist 68.5392
lhand 10.1138 26.8768
lfingers 7.12502
lthumb 35.2343 53.3778
rfemur -26.6174 -9.82471 19.4751
rtibia 39.7312
rfoot -19.2673 -13.166
rtoes -11.5668
lfemur -30.9182 -0.0575352 -18.5485
ltibia 39.4777
lfoot -15.036 -0.252228
ltoes -3.92682
981
root 0.261132 17.5541 -1.80891 6.55933 11.195 -1.02017
lowerback 15.0942 5.16197 -4.88246
upperback 10.0579 6.28676 -4.68126
thorax 2.33756 3.10986 -3.00321
lowerneck 0.655557 -2.68359 -4.25805
upperneck -11.6921 -1.90523 18.1401
head -3.26403 -1.51365 6.37463
rclavicle -6.36111e-015 -2.94201e-014
rhumerus 34.9602 9.38223 -3.81505
rradius 63.3306
rwrist -71.4528
rhand -3.54316 16.5026
rfingers 7.12502
rthumb 22.1926 -12.2435
lclavicle -6.36111e-015 -2.94201e-014
lhumerus 43.8627 -13.4558 34.0503
lradius 72.2004
lwrist 68.6796
lhand 10.0591 26.8671
lfingers 7.12502
lthumb 35.1824 53.3804
rfemur -26.6782 -9.99153 19.4942
rtibia 39.9981
rfoot -19.3688 -13.301
rtoes -12.0531
lfemur -31.0256 -0.191759 -18.5202
ltibia 39.6338
lfoot -15.0394 -0.453657
ltoes -3.63368
